<svg width="70" height="30" viewBox="0 0 70 30" fill="none" xmlns="http://www.w3.org/2000/svg">
<path fill-rule="evenodd" clip-rule="evenodd" d="M37.8664 3.93435L32.9897 4.98103V1.0272L37.8664 0V3.93435ZM48.0078 6.12453C46.1037 6.12453 44.8797 7.01596 44.1998 7.63625L43.9472 6.4346H39.6728V29.033L44.53 28.0058L44.5495 22.5209C45.2489 23.0248 46.2786 23.7419 47.9883 23.7419C51.466 23.7419 54.6329 20.951 54.6329 14.8072C54.6134 9.18665 51.4077 6.12453 48.0078 6.12453ZM46.842 19.478C45.6957 19.478 45.0156 19.0711 44.5494 18.5671L44.53 11.3767C45.0351 10.8147 45.7345 10.4271 46.842 10.4271C48.61 10.4271 49.834 12.4039 49.834 14.9428C49.834 17.5399 48.6294 19.478 46.842 19.478ZM69.9429 15.001C69.9429 10.0394 67.5337 6.12453 62.9291 6.12453C58.3052 6.12453 55.5075 10.0394 55.5075 14.9623C55.5075 20.7959 58.8103 23.7419 63.5509 23.7419C65.8629 23.7419 67.6114 23.2186 68.9325 22.4821V18.6059C67.6114 19.2649 66.096 19.6719 64.1726 19.6719C62.288 19.6719 60.6172 19.0129 60.4035 16.7259H69.9041C69.9041 16.6192 69.911 16.3769 69.919 16.0976C69.93 15.7177 69.9429 15.2689 69.9429 15.001ZM60.3451 13.1598C60.3451 10.9698 61.6856 10.0589 62.9096 10.0589C64.0948 10.0589 65.3576 10.9698 65.3576 13.1598H60.3451ZM32.9894 6.45394H37.8661V23.4125H32.9894V6.45394ZM27.4527 6.45394L27.7636 7.88818C28.9099 5.79497 31.183 6.22135 31.8047 6.45394V10.9116C31.2025 10.6984 29.2596 10.4271 28.1133 11.9195V23.4125H23.2561V6.45394H27.4527ZM18.049 2.24818L13.3083 3.25605L13.289 18.7803C13.289 21.6487 15.4456 23.7612 18.3209 23.7612C19.9141 23.7612 21.0798 23.4706 21.721 23.1217V19.1874C21.0993 19.4393 18.0295 20.3309 18.0295 17.4624V10.5821H21.721V6.45394H18.0295L18.049 2.24818ZM6.56695 10.3303C5.53714 10.3303 4.91547 10.6209 4.91547 11.3768C4.91547 12.2021 5.98546 12.5652 7.31287 13.0155C9.47685 13.7498 12.3252 14.7161 12.3372 18.2958C12.3372 21.7651 9.55886 23.7614 5.51781 23.7614C3.84686 23.7614 2.02053 23.4318 0.213668 22.6567V18.0439C1.84567 18.9355 3.90514 19.5944 5.51781 19.5944C6.60576 19.5944 7.38295 19.3037 7.38295 18.4121C7.38295 17.4981 6.22299 17.0802 4.82277 16.5758C2.69019 15.8075 0 14.8383 0 11.6094C0 8.17893 2.62286 6.12453 6.56695 6.12453C8.17947 6.12453 9.77266 6.37646 11.3852 7.01609V11.5706C9.90857 10.776 8.04343 10.3303 6.56695 10.3303Z" fill="#6461FC"/>
</svg>
